<svg width="549" height="401" viewBox="0 0 549 401" fill="none" xmlns="http://www.w3.org/2000/svg">
<g clip-path="url(#clip0_2742_151)">
<path d="M494.784 141.049H494.201C487.865 141.042 481.789 138.522 477.309 134.042C472.828 129.562 470.307 123.488 470.3 117.153V108.993H399.178V107.827H471.466V117.153C471.473 123.078 473.791 128.768 477.928 133.011C482.065 137.254 487.694 139.717 493.619 139.876V107.827H510.524C512.843 107.824 515.066 106.902 516.705 105.263C518.344 103.624 519.266 101.402 519.269 99.0843V9.90843C519.266 7.59052 518.344 5.36829 516.705 3.72928C515.066 2.09027 512.843 1.16832 510.524 1.1657H287.832C285.514 1.16832 283.291 2.09027 281.652 3.72928C280.013 5.36829 279.09 7.59052 279.088 9.90843V74.6047H277.922V9.90843C277.925 7.28146 278.97 4.76293 280.828 2.90538C282.686 1.04783 285.205 0.0029573 287.832 0H510.524C513.152 0.0029573 515.671 1.04783 517.529 2.90538C519.387 4.76293 520.432 7.28146 520.435 9.90843V99.0843C520.432 101.711 519.387 104.23 517.529 106.087C515.671 107.945 513.152 108.99 510.524 108.993H494.784V141.049Z" fill="#CCCCCC"/>
<path d="M473.786 29.4395C473.712 27.559 472.914 25.7799 471.558 24.4749C470.201 23.17 468.393 22.4405 466.51 22.4395H331.846C329.913 22.4395 328.059 23.207 326.693 24.5734C325.326 25.9397 324.559 27.7928 324.559 29.7251C324.559 31.6573 325.326 33.5105 326.693 34.8768C328.059 36.2431 329.913 37.0107 331.846 37.0107H466.51C468.442 37.008 470.294 36.2396 471.66 34.8738C473.026 33.5081 473.795 31.6565 473.797 29.7251C473.799 29.6297 473.795 29.5343 473.786 29.4395Z" fill="#CCCCCC"/>
<path d="M473.786 53.9194C473.712 52.039 472.914 50.2598 471.558 48.9549C470.201 47.65 468.393 46.9205 466.51 46.9194H331.846C329.913 46.9194 328.059 47.687 326.693 49.0533C325.326 50.4197 324.559 52.2728 324.559 54.205C324.559 56.1373 325.326 57.9904 326.693 59.3567C328.059 60.7231 329.913 61.4907 331.846 61.4907H466.51C468.442 61.488 470.294 60.7195 471.66 59.3538C473.026 57.9881 473.795 56.1365 473.797 54.205C473.799 54.1097 473.795 54.0143 473.786 53.9194Z" fill="#CCCCCC"/>
<path d="M473.786 78.3989C473.713 76.5185 472.915 74.7393 471.558 73.4344C470.202 72.1295 468.393 71.4 466.511 71.3989H331.846C330.778 71.399 329.723 71.6339 328.756 72.0872C327.789 72.5405 326.933 73.2009 326.25 74.0217C325.95 74.385 325.685 74.7752 325.457 75.1874H389.851C392.17 75.1903 394.392 76.1123 396.031 77.7512C397.671 79.3902 398.593 81.6123 398.596 83.9302V85.9701H466.511C468.443 85.9675 470.295 85.199 471.661 83.8333C473.027 82.4676 473.795 80.616 473.798 78.6845C473.8 78.5892 473.796 78.4938 473.786 78.3989Z" fill="#CCCCCC"/>
<path d="M14.2933 399.079C14.6104 399.34 14.9277 399.589 15.2524 399.835H95.354C95.9506 399.589 96.5447 399.337 97.1361 399.079C105.592 395.4 113.463 390.501 120.498 384.538C125.168 380.581 129.465 376.497 132.58 372.669C136.926 367.327 140.929 361.506 142.79 354.873C144.648 348.24 144.093 340.637 139.943 335.136C138.658 333.444 137.079 331.998 135.28 330.867C134.982 330.678 134.68 330.497 134.37 330.327C129.208 327.548 123.185 326.824 117.511 328.299C109.487 330.372 102.819 336.159 98.0613 342.947C93.3037 349.731 90.2149 357.523 87.1717 365.228C84.083 351.475 74.7301 339.157 62.096 332.894C49.4656 326.631 33.773 326.706 21.4109 333.49C17.5212 335.638 14.0075 338.405 11.0082 341.682C10.7101 342.003 10.4191 342.332 10.1323 342.664C4.10228 349.644 0.33009 358.584 0.0205303 367.802C-0.118647 373.755 1.09332 379.662 3.56536 385.079C6.03741 390.496 9.70524 395.283 14.2933 399.079Z" fill="#F2F2F2"/>
<path d="M92.1514 399.834H93.2841C93.2991 399.581 93.318 399.332 93.3407 399.079C93.7367 394.141 94.5655 389.247 95.8177 384.454C98.6907 373.512 103.598 363.207 110.283 354.08C116.949 344.923 125.353 337.167 135.015 331.255C135.086 331.215 135.146 331.159 135.192 331.091C135.238 331.024 135.268 330.947 135.279 330.866C135.298 330.761 135.286 330.652 135.245 330.553C135.204 330.454 135.136 330.369 135.049 330.307C134.961 330.246 134.858 330.21 134.751 330.205C134.644 330.199 134.538 330.225 134.445 330.277C134.419 330.292 134.394 330.309 134.37 330.326C128.895 333.662 123.814 337.603 119.221 342.075C111.005 350.088 104.38 359.583 99.6956 370.06C95.5632 379.235 93.032 389.05 92.2116 399.079C92.189 399.332 92.1702 399.585 92.1514 399.834Z" fill="white"/>
<path d="M10.1315 342.664C10.1397 342.668 10.1487 342.67 10.1579 342.671C10.9848 342.822 11.8155 342.981 12.6387 343.151C19.3957 344.538 26.0102 346.546 32.398 349.149C38.7689 351.749 44.8972 354.907 50.711 358.587C56.5323 362.265 62.0218 366.444 67.1171 371.075C72.2125 375.7 76.8866 380.769 81.0842 386.221C84.2215 390.306 87.0739 394.602 89.6214 399.079C89.7648 399.328 89.9046 399.581 90.0443 399.834H91.3394C91.2035 399.581 91.0638 399.328 90.9203 399.079C87.8384 393.594 84.3045 388.375 80.3554 383.477C75.9883 378.055 71.1474 373.034 65.89 368.47C60.666 363.933 55.0594 359.856 49.1326 356.284C43.1813 352.698 36.9241 349.646 30.4344 347.164C24.1367 344.756 17.6347 342.922 11.0074 341.682C10.8225 341.648 10.6413 341.614 10.4562 341.58C9.75022 341.452 9.44804 342.516 10.1315 342.664Z" fill="white"/>
<path d="M32.6564 382.072C40.5444 380.987 48.555 381.168 56.386 382.607C64.1943 384.034 71.7323 386.669 78.729 390.417C82.661 392.529 86.3929 394.995 89.8788 397.782C90.4483 398.237 89.6421 399.034 89.0778 398.583C82.9611 393.718 76.1045 389.865 68.7684 387.169C61.4904 384.477 53.8405 382.926 46.0889 382.569C41.7027 382.367 37.3074 382.566 32.9575 383.164C32.8129 383.199 32.6605 383.177 32.5312 383.104C32.4018 383.03 32.3052 382.911 32.2608 382.769C32.2218 382.624 32.2415 382.469 32.3155 382.339C32.3896 382.209 32.5121 382.113 32.6564 382.072Z" fill="white"/>
<path d="M389.268 75.1875H166.575C163.948 75.1912 161.43 76.2363 159.572 78.0937C157.714 79.9511 156.669 82.4692 156.665 85.0959V174.272C156.669 176.899 157.714 179.417 159.572 181.274C161.43 183.131 163.948 184.177 166.575 184.18H182.315V216.237H182.898C189.235 216.23 195.311 213.71 199.792 209.23C204.273 204.75 206.793 198.676 206.8 192.34V184.18H389.268C391.895 184.177 394.413 183.131 396.271 181.274C398.129 179.417 399.174 176.899 399.178 174.272V85.0959C399.174 82.4692 398.129 79.9511 396.271 78.0937C394.413 76.2363 391.895 75.1912 389.268 75.1875ZM398.012 174.272C398.009 176.59 397.087 178.812 395.448 180.451C393.809 182.09 391.586 183.012 389.268 183.015H205.634V192.34C205.626 198.266 203.307 203.954 199.171 208.198C195.034 212.441 189.406 214.905 183.481 215.065V183.015H166.575C164.257 183.012 162.035 182.09 160.395 180.451C158.756 178.812 157.834 176.59 157.831 174.272V85.0959C157.834 82.7781 158.756 80.556 160.395 78.917C162.035 77.278 164.257 76.356 166.575 76.3532H389.268C391.586 76.356 393.809 77.278 395.448 78.917C397.087 80.556 398.009 82.7781 398.012 85.0959V174.272Z" fill="#3F3D56"/>
<path d="M345.254 97.627H210.589C208.707 97.628 206.898 98.3575 205.542 99.6624C204.186 100.967 203.387 102.746 203.314 104.627C203.304 104.722 203.3 104.817 203.302 104.913C203.305 106.844 204.074 108.696 205.44 110.061C206.806 111.427 208.657 112.195 210.589 112.198H345.254C347.187 112.198 349.04 111.431 350.407 110.064C351.773 108.698 352.541 106.845 352.541 104.913C352.541 102.98 351.773 101.127 350.407 99.7609C349.04 98.3945 347.187 97.627 345.254 97.627Z" fill="#1E611A"/>
<path d="M345.254 122.107H210.589C208.707 122.108 206.898 122.837 205.542 124.142C204.186 125.447 203.387 127.226 203.314 129.107C203.304 129.202 203.3 129.297 203.302 129.393C203.305 131.324 204.074 133.176 205.44 134.541C206.806 135.907 208.657 136.675 210.589 136.678H345.254C347.187 136.678 349.04 135.911 350.407 134.544C351.773 133.178 352.541 131.325 352.541 129.393C352.541 127.46 351.773 125.607 350.407 124.241C349.04 122.875 347.187 122.107 345.254 122.107Z" fill="#1E611A"/>
<path d="M345.254 146.586H210.589C208.707 146.588 206.898 147.317 205.542 148.622C204.186 149.927 203.387 151.706 203.314 153.586C203.304 153.681 203.3 153.777 203.302 153.872C203.305 155.803 204.074 157.655 205.44 159.021C206.806 160.386 208.657 161.155 210.589 161.158H345.254C347.187 161.158 349.04 160.39 350.407 159.024C351.773 157.657 352.541 155.804 352.541 153.872C352.541 151.94 351.773 150.087 350.407 148.72C349.04 147.354 347.187 146.586 345.254 146.586Z" fill="#1E611A"/>
<path d="M131.007 275.524C130.744 275.524 130.482 275.508 130.222 275.475C129.325 275.365 128.461 275.067 127.687 274.6C126.914 274.133 126.248 273.508 125.732 272.765C125.217 272.023 124.865 271.18 124.698 270.292C124.531 269.404 124.554 268.491 124.765 267.612C124.815 267.408 124.876 267.207 124.946 267.009L105.496 242.114C104.64 241.009 104.162 239.658 104.135 238.26C104.108 236.863 104.532 235.494 105.344 234.357L112.157 224.896L121.062 231.765L117.485 237.909L131.652 262.738C131.937 262.764 132.22 262.81 132.498 262.876C134.025 263.242 135.364 264.156 136.261 265.444C137.159 266.731 137.554 268.303 137.37 269.862C137.186 271.421 136.437 272.858 135.264 273.902C134.091 274.945 132.577 275.522 131.007 275.524Z" fill="#A0616A"/>
<path d="M164.668 393.492L171.815 393.491L175.215 365.929L164.667 365.93L164.668 393.492Z" fill="#A0616A"/>
<path d="M185.599 400.125L163.137 400.127L163.136 391.45L176.92 391.449C178.059 391.449 179.188 391.673 180.241 392.109C181.294 392.545 182.251 393.185 183.056 393.99C183.862 394.796 184.502 395.752 184.938 396.805C185.374 397.858 185.599 398.986 185.599 400.125Z" fill="#2F2E41"/>
<path d="M105.788 393.492L112.935 393.491L116.335 365.929L105.787 365.93L105.788 393.492Z" fill="#A0616A"/>
<path d="M126.72 400.125L104.258 400.127L104.257 391.45L118.041 391.449C119.181 391.449 120.309 391.673 121.362 392.109C122.415 392.545 123.372 393.185 124.178 393.99C124.983 394.796 125.623 395.752 126.059 396.805C126.495 397.858 126.72 398.986 126.72 400.125Z" fill="#2F2E41"/>
<path d="M110.175 226.238L126.221 232.334L130.138 221.455C130.658 220.01 130.651 218.428 130.117 216.988C129.584 215.548 128.558 214.343 127.222 213.586C125.871 212.821 124.29 212.563 122.765 212.861C121.24 213.158 119.872 213.991 118.908 215.209L110.175 226.238Z" fill="#1E611A"/>
<path d="M163.398 371.243C162.757 371.242 162.135 371.028 161.629 370.635C161.123 370.242 160.762 369.692 160.604 369.071C152.602 338.465 144.478 323.124 135.766 305.386C135.548 304.943 135.195 304.582 134.757 304.354C134.32 304.127 133.821 304.044 133.334 304.119C132.847 304.195 132.396 304.423 132.048 304.772C131.699 305.121 131.471 305.572 131.397 306.059L120.598 368.453C120.49 369.149 120.133 369.782 119.593 370.234C119.053 370.686 118.367 370.927 117.663 370.911L101.63 370.52C101.241 370.512 100.858 370.426 100.503 370.265C100.149 370.105 99.8307 369.874 99.5679 369.588C99.2903 369.312 99.078 368.979 98.9465 368.611C98.8149 368.243 98.7676 367.85 98.8079 367.462C106.069 319.584 111.787 276.245 122.781 263.024C123.086 262.735 123.435 262.498 123.816 262.321L123.482 262.27C123.387 262.255 123.133 262.216 123.13 261.961L123.127 261.714L123.377 261.667C123.778 261.652 124.177 261.713 124.556 261.844L149.649 265.705C150.344 265.812 150.977 266.168 151.429 266.707C151.881 267.245 152.121 267.93 152.106 268.633C153.47 275.014 155.561 284.645 155.748 285.119C169.136 310.567 174.331 330.606 179.731 364.825C179.843 365.551 179.676 366.292 179.263 366.899C178.851 367.507 178.224 367.936 177.509 368.1L164.051 371.169C163.837 371.218 163.618 371.243 163.398 371.243Z" fill="#2F2E41"/>
<path d="M149.315 269.877C149.09 269.877 148.866 269.851 148.647 269.798L123.941 263.923C123.563 263.834 123.206 263.669 122.894 263.438C122.582 263.206 122.32 262.913 122.125 262.577C121.924 262.229 121.796 261.844 121.747 261.445C121.699 261.046 121.731 260.641 121.843 260.255C124.507 251.021 121.014 239.574 116.842 228.58C116.311 225.365 116.831 222.064 118.324 219.168C119.817 216.271 122.204 213.933 125.131 212.5L125.198 212.467L138.169 213.122C140.299 213.68 142.274 214.714 143.947 216.145C145.62 217.577 146.946 219.369 147.827 221.386C152.826 233.085 154.258 248.096 152.203 267.277C152.127 267.99 151.79 268.65 151.257 269.13C150.724 269.61 150.033 269.876 149.315 269.877Z" fill="#1E611A"/>
<path d="M152.639 243.174C151.32 243.177 150.034 242.768 148.958 242.005L139.39 235.186L146.217 226.25L152.38 229.797L177.145 215.513C177.17 215.228 177.214 214.945 177.278 214.667C177.569 213.432 178.218 212.312 179.146 211.447C180.073 210.581 181.236 210.011 182.488 209.806C183.739 209.602 185.024 209.774 186.178 210.299C187.332 210.824 188.305 211.68 188.972 212.758C189.64 213.836 189.973 215.088 189.93 216.355C189.886 217.623 189.467 218.849 188.726 219.878C187.986 220.907 186.957 221.694 185.769 222.138C184.581 222.583 183.288 222.665 182.053 222.375C181.849 222.326 181.647 222.267 181.449 222.197L156.572 241.819C155.45 242.7 154.065 243.177 152.639 243.174Z" fill="#A0616A"/>
<path d="M136.354 237.969L150.549 228.318L143.878 218.872C142.992 217.618 141.692 216.717 140.206 216.329C138.72 215.94 137.145 216.09 135.758 216.751C134.356 217.419 133.239 218.566 132.608 219.986C131.978 221.406 131.877 223.004 132.322 224.492L136.354 237.969Z" fill="#1E611A"/>
<path d="M129.527 207.624C137.435 207.624 143.845 201.215 143.845 193.309C143.845 185.402 137.435 178.993 129.527 178.993C121.619 178.993 115.209 185.402 115.209 193.309C115.209 201.215 121.619 207.624 129.527 207.624Z" fill="#A0616A"/>
<path d="M130.839 207.955C128.69 207.946 127.032 205.684 127.129 203.537C127.225 201.391 128.667 199.502 130.404 198.237C132.141 196.972 134.179 196.202 136.116 195.272C138.053 194.342 139.974 193.182 141.17 191.397C141.892 190.229 142.324 188.904 142.428 187.534C142.531 186.165 142.305 184.79 141.766 183.526C140.653 180.998 138.742 178.905 136.326 177.567C132.736 175.466 128.486 174.794 124.423 175.686C120.36 176.577 116.782 178.965 114.402 182.376L111.949 189.054C109.449 192.059 109.053 196.522 110.589 200.116C112.126 203.71 115.398 206.414 119.09 207.7C122.835 208.903 126.845 209.024 130.656 208.047" fill="#2F2E41"/>
<path d="M115.369 186.521C114.388 185.009 113.05 183.761 111.473 182.888C109.896 182.015 108.128 181.543 106.326 181.514C104.523 181.485 102.742 181.9 101.137 182.722C99.5331 183.544 98.1557 184.748 97.1268 186.228C95.4044 188.706 94.7789 191.76 93.5946 194.534C91.4496 199.504 87.5485 203.509 82.6367 205.785C86.9374 206.541 91.222 204.354 94.6604 201.662C98.0987 198.971 101.123 195.686 104.973 193.627C108.003 192.014 111.406 191.232 114.836 191.363" fill="#2F2E41"/>
<path d="M235.887 401H13.7773C13.6227 401 13.4744 400.939 13.3651 400.829C13.2558 400.72 13.1943 400.572 13.1943 400.417C13.1943 400.263 13.2558 400.114 13.3651 400.005C13.4744 399.896 13.6227 399.834 13.7773 399.834H235.887C236.041 399.834 236.189 399.896 236.299 400.005C236.408 400.114 236.47 400.263 236.47 400.417C236.47 400.572 236.408 400.72 236.299 400.829C236.189 400.939 236.041 401 235.887 401Z" fill="#3F3D56"/>
<path d="M514.605 213.323C533.601 213.323 549 197.926 549 178.934C549 159.942 533.601 144.546 514.605 144.546C495.609 144.546 480.21 159.942 480.21 178.934C480.21 197.926 495.609 213.323 514.605 213.323Z" fill="#E6E6E6"/>
<path d="M517.885 203.445C516.484 203.406 514.741 203.357 513.398 202.376C512.998 202.072 512.67 201.685 512.436 201.24C512.201 200.796 512.067 200.306 512.042 199.804C512.018 199.448 512.077 199.09 512.213 198.76C512.35 198.43 512.561 198.136 512.831 197.901C513.231 197.602 513.699 197.409 514.194 197.337C514.688 197.266 515.192 197.32 515.66 197.494L514.516 189.138L515.356 189.023L516.7 198.846L515.999 198.525C515.187 198.152 514.071 197.962 513.378 198.548C513.207 198.701 513.075 198.891 512.99 199.104C512.905 199.317 512.871 199.546 512.889 199.774C512.91 200.147 513.011 200.512 513.185 200.843C513.359 201.174 513.602 201.464 513.898 201.692C514.943 202.455 516.332 202.554 517.909 202.598L517.885 203.445Z" fill="#3F3D56"/>
<path d="M510.365 189.858H505.802V190.706H510.365V189.858Z" fill="#3F3D56"/>
<path d="M524.771 189.858H520.207V190.706H524.771V189.858Z" fill="#3F3D56"/>
<path d="M497.873 178.16C494.198 177.741 491.352 174.22 491.039 170.648C490.667 166.399 493.142 162.363 496.538 159.978C500.09 157.484 504.514 156.443 508.795 156.214C517.146 155.798 525.354 158.503 531.821 163.802C535.029 166.465 538.025 169.859 539.16 173.957C540.146 177.516 539.344 181.549 536.481 184.042C535.772 184.652 534.945 185.11 534.051 185.385C533.157 185.66 532.216 185.747 531.286 185.641C529.065 185.41 527.015 184.242 525.24 182.952C521.789 180.443 518.955 176.948 514.75 175.636C511.667 174.675 507.665 175.521 505.781 178.309C505.354 178.947 505.076 179.674 504.971 180.435C504.932 180.597 504.956 180.768 505.038 180.913C505.121 181.058 505.255 181.167 505.415 181.216C505.577 181.26 505.75 181.238 505.897 181.155C506.043 181.072 506.151 180.935 506.196 180.773C506.691 177.261 511.009 175.951 514.04 176.753C518.458 177.922 521.424 181.864 525.049 184.369C526.925 185.767 529.136 186.65 531.46 186.927C533.475 187.085 535.475 186.471 537.054 185.209C540.151 182.764 541.335 178.559 540.651 174.773C539.858 170.388 536.906 166.631 533.668 163.722C527.102 157.886 518.579 154.738 509.796 154.905C505.316 155.008 500.642 155.932 496.783 158.299C493.039 160.596 490.146 164.437 489.768 168.903C489.435 172.833 491.544 176.944 495.165 178.666C496.018 179.071 496.934 179.329 497.873 179.431C498.684 179.523 498.678 178.252 497.873 178.16Z" fill="#3F3D56"/>
<ellipse cx="75.0992" cy="35.433" rx="16.4009" ry="16.4203" fill="#1E611A"/>
</g>
<defs>
<clipPath id="clip0_2742_151">
<rect width="549" height="401" fill="white"/>
</clipPath>
</defs>
</svg>
