<svg width="318" height="232" viewBox="0 0 318 232" fill="none" xmlns="http://www.w3.org/2000/svg">
<g clip-path="url(#clip0_2741_5)">
<path d="M286.597 81.6047H286.259C282.589 81.6005 279.07 80.1425 276.474 77.5507C273.879 74.9587 272.419 71.4446 272.415 67.7791V63.0581H231.218V62.3837H273.09V67.7791C273.094 71.2074 274.437 74.4989 276.833 76.954C279.229 79.409 282.49 80.834 285.921 80.926V62.3837H295.714C297.057 62.3822 298.344 61.8488 299.294 60.9006C300.243 59.9523 300.778 58.6666 300.779 57.3256V5.73256C300.778 4.39152 300.243 3.10585 299.294 2.15759C298.344 1.20933 297.057 0.675936 295.714 0.674419H166.723C165.38 0.675936 164.093 1.20933 163.143 2.15759C162.193 3.10585 161.659 4.39152 161.658 5.73256V43.1628H160.982V5.73256C160.984 4.21271 161.589 2.75561 162.666 1.68092C163.742 0.606224 165.201 0.00171095 166.723 0H295.714C297.236 0.00171095 298.695 0.606224 299.771 1.68092C300.847 2.75561 301.453 4.21271 301.454 5.73256V57.3256C301.453 58.8454 300.847 60.3025 299.771 61.3772C298.695 62.4519 297.236 63.0564 295.714 63.0581H286.597V81.6047Z" fill="#CCCCCC"/>
<path d="M274.434 17.0323C274.391 15.9443 273.929 14.915 273.143 14.1601C272.358 13.4051 271.31 12.9831 270.219 12.9824H192.217C191.098 12.9824 190.024 13.4265 189.232 14.217C188.441 15.0075 187.996 16.0796 187.996 17.1975C187.996 18.3155 188.441 19.3876 189.232 20.1781C190.024 20.9686 191.098 21.4127 192.217 21.4127H270.219C271.338 21.4111 272.411 20.9665 273.202 20.1764C273.994 19.3862 274.439 18.315 274.44 17.1975C274.442 17.1424 274.439 17.0872 274.434 17.0323Z" fill="#CCCCCC"/>
<path d="M274.434 31.1954C274.391 30.1074 273.929 29.0781 273.143 28.3231C272.358 27.5682 271.31 27.1461 270.219 27.1455H192.217C191.098 27.1455 190.024 27.5896 189.232 28.3801C188.441 29.1706 187.996 30.2427 187.996 31.3606C187.996 32.4785 188.441 33.5507 189.232 34.3412C190.024 35.1316 191.098 35.5757 192.217 35.5757H270.219C271.338 35.5742 272.411 35.1296 273.202 34.3395C273.994 33.5493 274.439 32.4781 274.44 31.3606C274.442 31.3055 274.439 31.2503 274.434 31.1954Z" fill="#CCCCCC"/>
<path d="M274.433 45.358C274.391 44.27 273.928 43.2407 273.143 42.4857C272.357 41.7308 271.309 41.3087 270.219 41.3081H192.217C191.598 41.3081 190.987 41.4441 190.426 41.7063C189.866 41.9686 189.371 42.3507 188.975 42.8255C188.801 43.0357 188.647 43.2615 188.516 43.5H225.815C227.158 43.5016 228.445 44.035 229.395 44.9833C230.344 45.9315 230.878 47.2171 230.88 48.5581V49.7383H270.219C271.338 49.7368 272.411 49.2922 273.202 48.5021C273.993 47.7119 274.438 46.6407 274.44 45.5232C274.441 45.4681 274.439 45.4129 274.433 45.358Z" fill="#CCCCCC"/>
<path d="M8.27937 230.889C8.46307 231.04 8.64685 231.184 8.83491 231.326H55.2326C55.5782 231.184 55.9223 231.038 56.2649 230.889C61.163 228.76 65.7221 225.926 69.7966 222.476C72.5021 220.187 74.991 217.824 76.7954 215.609C79.3127 212.518 81.6311 209.15 82.7094 205.313C83.7855 201.475 83.464 197.077 81.0603 193.894C80.316 192.915 79.401 192.079 78.3592 191.424C78.1864 191.315 78.0115 191.21 77.8322 191.112C74.8417 189.504 71.3534 189.085 68.0666 189.939C63.4189 191.138 59.5565 194.486 56.8008 198.413C54.045 202.338 52.2559 206.846 50.4931 211.304C48.704 203.347 43.2865 196.22 35.9684 192.597C28.6524 188.974 19.5627 189.017 12.4021 192.942C10.1491 194.184 8.11386 195.785 6.37654 197.682C6.20386 197.867 6.03534 198.057 5.86916 198.249C2.37639 202.288 0.191402 207.46 0.0120946 212.794C-0.0685216 216.238 0.63349 219.655 2.06538 222.789C3.49728 225.923 5.62182 228.693 8.27937 230.889Z" fill="#F2F2F2"/>
<path d="M53.3779 231.326H54.0341C54.0427 231.179 54.0537 231.035 54.0668 230.889C54.2962 228.032 54.7763 225.201 55.5016 222.428C57.1657 216.097 60.0082 210.135 63.8805 204.854C67.7418 199.556 72.6095 195.069 78.2062 191.649C78.2471 191.626 78.2822 191.593 78.3087 191.554C78.3352 191.515 78.3525 191.471 78.3592 191.424C78.3699 191.363 78.363 191.3 78.3394 191.243C78.3157 191.186 78.2763 191.137 78.2256 191.101C78.175 191.065 78.1152 191.045 78.0533 191.041C77.9913 191.038 77.9298 191.053 77.8759 191.083C77.8608 191.092 77.8462 191.102 77.8322 191.112C74.6613 193.042 71.7179 195.322 69.0574 197.909C64.2984 202.545 60.461 208.038 57.7478 214.1C55.3542 219.408 53.888 225.087 53.4128 230.889C53.3997 231.035 53.3888 231.182 53.3779 231.326Z" fill="white"/>
<path d="M5.86915 198.249C5.8739 198.252 5.8791 198.253 5.88443 198.254C6.3634 198.341 6.84461 198.433 7.32144 198.531C11.2353 199.334 15.0667 200.495 18.7667 202.002C22.4569 203.506 26.0066 205.333 29.3742 207.462C32.7461 209.59 35.9258 212.007 38.8772 214.687C41.8287 217.363 44.5361 220.295 46.9674 223.45C48.7847 225.813 50.4369 228.299 51.9125 230.889C51.9956 231.033 52.0765 231.179 52.1575 231.326H52.9076C52.8289 231.179 52.748 231.033 52.6649 230.889C50.8797 227.715 48.8327 224.696 46.5453 221.862C44.0157 218.725 41.2117 215.82 38.1664 213.18C35.1405 210.555 31.8929 208.196 28.46 206.13C25.0127 204.055 21.3884 202.289 17.6293 200.853C13.9815 199.46 10.2153 198.399 6.37653 197.681C6.26942 197.662 6.16444 197.642 6.05722 197.622C5.64831 197.548 5.47327 198.164 5.86915 198.249Z" fill="white"/>
<path d="M18.9163 221.049C23.4853 220.422 28.1253 220.526 32.6613 221.359C37.1841 222.184 41.5504 223.709 45.6031 225.877C47.8807 227.1 50.0423 228.526 52.0615 230.138C52.3913 230.402 51.9244 230.863 51.5975 230.602C48.0545 227.787 44.0829 225.558 39.8336 223.998C35.618 222.441 31.1868 221.543 26.6968 221.337C24.1562 221.22 21.6103 221.335 19.0907 221.681C19.0069 221.701 18.9186 221.689 18.8437 221.646C18.7688 221.604 18.7128 221.534 18.6871 221.452C18.6645 221.369 18.6759 221.279 18.7188 221.204C18.7617 221.128 18.8327 221.073 18.9163 221.049Z" fill="white"/>
<path d="M225.478 43.5H96.4865C94.9647 43.5021 93.5059 44.1068 92.4298 45.1814C91.3537 46.256 90.7482 47.7128 90.7461 49.2326V100.826C90.7482 102.345 91.3537 103.802 92.4298 104.877C93.5059 105.951 94.9647 106.556 96.4865 106.558H105.604V125.105H105.941C109.612 125.101 113.131 123.643 115.727 121.051C118.322 118.459 119.782 114.945 119.786 111.279V106.558H225.478C226.999 106.556 228.458 105.951 229.534 104.877C230.61 103.802 231.216 102.345 231.218 100.826V49.2326C231.216 47.7128 230.61 46.256 229.534 45.1814C228.458 44.1068 226.999 43.5022 225.478 43.5ZM230.543 100.826C230.541 102.167 230.007 103.452 229.057 104.4C228.108 105.349 226.821 105.882 225.478 105.884H119.111V111.279C119.106 114.707 117.763 117.999 115.367 120.454C112.971 122.909 109.711 124.334 106.279 124.427V105.884H96.4865C95.1437 105.882 93.8563 105.349 92.9068 104.4C91.9572 103.452 91.4231 102.167 91.4214 100.826V49.2326C91.4231 47.8916 91.9572 46.6059 92.9068 45.6577C93.8563 44.7095 95.1437 44.176 96.4865 44.1744H225.478C226.821 44.176 228.108 44.7095 229.057 45.6577C230.007 46.6059 230.541 47.8916 230.543 49.2326V100.826Z" fill="#3F3D56"/>
<path d="M199.983 56.4824H121.981C120.891 56.4831 119.843 56.9051 119.057 57.6601C118.272 58.415 117.809 59.4443 117.767 60.5323C117.761 60.5872 117.759 60.6424 117.76 60.6975C117.762 61.815 118.207 62.8862 118.998 63.6763C119.789 64.4665 120.862 64.9111 121.981 64.9127H199.983C201.103 64.9127 202.177 64.4686 202.968 63.6781C203.76 62.8876 204.204 61.8155 204.204 60.6975C204.204 59.5796 203.76 58.5075 202.968 57.717C202.177 56.9265 201.103 56.4824 199.983 56.4824Z" fill="#1E611A"/>
<path d="M199.983 70.6455H121.981C120.891 70.6461 119.843 71.0682 119.057 71.8231C118.272 72.5781 117.809 73.6074 117.767 74.6954C117.761 74.7503 117.759 74.8055 117.76 74.8606C117.762 75.9781 118.207 77.0493 118.998 77.8394C119.789 78.6296 120.862 79.0742 121.981 79.0757H199.983C201.103 79.0757 202.177 78.6316 202.968 77.8412C203.76 77.0507 204.204 75.9785 204.204 74.8606C204.204 73.7427 203.76 72.6706 202.968 71.8801C202.177 71.0896 201.103 70.6455 199.983 70.6455Z" fill="#1E611A"/>
<path d="M199.983 84.8081H121.981C120.891 84.8087 119.843 85.2308 119.057 85.9857C118.272 86.7407 117.809 87.77 117.767 88.858C117.761 88.9129 117.759 88.9681 117.76 89.0232C117.762 90.1407 118.207 91.2119 118.998 92.002C119.789 92.7922 120.862 93.2368 121.981 93.2383H199.983C201.103 93.2383 202.177 92.7942 202.968 92.0038C203.76 91.2133 204.204 90.1411 204.204 89.0232C204.204 87.9053 203.76 86.8332 202.968 86.0427C202.177 85.2522 201.103 84.8081 199.983 84.8081Z" fill="#1E611A"/>
<path d="M75.8842 159.405C75.7321 159.405 75.5802 159.396 75.4294 159.377C74.9099 159.313 74.4096 159.141 73.9615 158.871C73.5134 158.6 73.1274 158.239 72.829 157.809C72.5306 157.38 72.3265 156.892 72.2299 156.378C72.1334 155.865 72.1467 155.336 72.2688 154.828C72.2978 154.71 72.3328 154.594 72.3737 154.479L61.1073 140.076C60.6113 139.436 60.3349 138.655 60.3191 137.846C60.3032 137.038 60.5489 136.246 61.0194 135.588L64.9658 130.114L70.1239 134.088L68.0517 137.643L76.2581 152.008C76.4231 152.023 76.5868 152.05 76.7481 152.088C77.6323 152.3 78.4078 152.828 78.9278 153.573C79.4479 154.318 79.6763 155.228 79.5698 156.13C79.4633 157.031 79.0294 157.863 78.3501 158.467C77.6709 159.07 76.7935 159.404 75.8842 159.405Z" fill="#A0616A"/>
<path d="M95.3815 227.656L99.5214 227.656L101.491 211.71L95.3809 211.71L95.3815 227.656Z" fill="#A0616A"/>
<path d="M107.505 231.494L94.4941 231.495L94.4939 226.475L102.478 226.474C103.138 226.474 103.792 226.604 104.401 226.856C105.011 227.109 105.566 227.478 106.032 227.945C106.499 228.411 106.869 228.964 107.122 229.573C107.375 230.182 107.505 230.835 107.505 231.494Z" fill="#2F2E41"/>
<path d="M61.2761 227.656L65.4159 227.656L67.3853 211.71L61.2754 211.71L61.2761 227.656Z" fill="#A0616A"/>
<path d="M73.4004 231.494L60.3896 231.495L60.3894 226.475L68.3733 226.474C69.0334 226.474 69.6871 226.604 70.297 226.856C70.9069 227.109 71.4611 227.478 71.9279 227.945C72.3947 228.411 72.765 228.964 73.0176 229.573C73.2703 230.182 73.4004 230.835 73.4004 231.494Z" fill="#2F2E41"/>
<path d="M63.8174 130.891L73.1117 134.418L75.3809 128.123C75.6822 127.287 75.6779 126.372 75.3689 125.539C75.0598 124.706 74.4658 124.009 73.6918 123.571C72.9089 123.128 71.9932 122.979 71.11 123.151C70.2268 123.324 69.4343 123.805 68.8758 124.51L63.8174 130.891Z" fill="#1E611A"/>
<path d="M94.6453 214.784C94.2742 214.783 93.9138 214.66 93.6208 214.432C93.3278 214.205 93.1189 213.886 93.027 213.527C88.3923 195.82 83.6863 186.945 78.64 176.682C78.5138 176.426 78.3092 176.217 78.0558 176.085C77.8025 175.953 77.5137 175.906 77.2314 175.949C76.9491 175.993 76.6881 176.125 76.4862 176.327C76.2844 176.529 76.1524 176.789 76.1092 177.071L69.8542 213.169C69.7917 213.572 69.5848 213.938 69.2721 214.2C68.9593 214.462 68.5619 214.601 68.154 214.592L58.8675 214.366C58.6421 214.361 58.4201 214.311 58.2148 214.218C58.0095 214.125 57.8251 213.992 57.6729 213.826C57.5121 213.667 57.3891 213.474 57.3129 213.261C57.2368 213.048 57.2093 212.821 57.2327 212.596C61.4387 184.896 64.7504 159.822 71.1188 152.173C71.2953 152.006 71.4977 151.869 71.7181 151.766L71.5249 151.737C71.4697 151.728 71.3226 151.706 71.3208 151.558L71.319 151.415L71.4642 151.388C71.6962 151.38 71.9276 151.415 72.1468 151.49L86.6818 153.724C87.0844 153.786 87.4508 153.992 87.7126 154.304C87.9743 154.616 88.1137 155.012 88.1047 155.418C88.895 159.11 90.1058 164.682 90.2142 164.956C97.9691 179.68 100.978 191.273 104.106 211.071C104.171 211.49 104.074 211.919 103.835 212.271C103.597 212.622 103.233 212.87 102.819 212.965L95.0239 214.741C94.8997 214.769 94.7727 214.784 94.6453 214.784Z" fill="#2F2E41"/>
<path d="M86.4883 156.138C86.3579 156.138 86.2279 156.123 86.101 156.093L71.791 152.694C71.5717 152.642 71.3652 152.547 71.1842 152.413C71.0033 152.279 70.8517 152.11 70.7389 151.915C70.6225 151.714 70.5481 151.491 70.52 151.26C70.4919 151.029 70.5108 150.795 70.5755 150.572C72.1186 145.229 70.0952 138.607 67.6787 132.246C67.3713 130.386 67.6724 128.476 68.5373 126.8C69.4022 125.125 70.7848 123.772 72.4802 122.943L72.5191 122.924L80.0321 123.303C81.2658 123.626 82.4101 124.224 83.379 125.052C84.3479 125.88 85.1163 126.917 85.6263 128.084C88.5221 134.852 89.3513 143.537 88.1609 154.634C88.1171 155.047 87.9221 155.429 87.6133 155.706C87.3046 155.984 86.9039 156.138 86.4883 156.138Z" fill="#1E611A"/>
<path d="M88.4137 140.69C87.6499 140.691 86.9046 140.455 86.2818 140.013L80.7393 136.068L84.6937 130.898L88.2635 132.95L102.608 124.686C102.623 124.521 102.649 124.358 102.686 124.196C102.854 123.482 103.23 122.834 103.767 122.333C104.304 121.833 104.978 121.503 105.703 121.384C106.428 121.266 107.172 121.365 107.841 121.669C108.509 121.973 109.073 122.469 109.459 123.092C109.846 123.716 110.039 124.44 110.014 125.173C109.988 125.907 109.746 126.616 109.317 127.211C108.888 127.807 108.292 128.262 107.604 128.519C106.916 128.776 106.167 128.824 105.452 128.656C105.333 128.628 105.216 128.593 105.102 128.553L90.6917 139.906C90.0422 140.415 89.2397 140.691 88.4137 140.69Z" fill="#A0616A"/>
<path d="M78.9813 137.677L87.2032 132.094L83.3392 126.629C82.8262 125.903 82.0727 125.382 81.212 125.158C80.3514 124.933 79.4389 125.019 78.6359 125.402C77.8236 125.788 77.1765 126.452 76.8115 127.274C76.4465 128.095 76.3876 129.02 76.6455 129.881L78.9813 137.677Z" fill="#1E611A"/>
<path d="M75.027 120.122C79.6074 120.122 83.3206 116.413 83.3206 111.839C83.3206 107.265 79.6074 103.557 75.027 103.557C70.4466 103.557 66.7334 107.265 66.7334 111.839C66.7334 116.413 70.4466 120.122 75.027 120.122Z" fill="#A0616A"/>
<path d="M75.7873 120.313C74.5425 120.307 73.5822 118.999 73.638 117.757C73.6938 116.515 74.529 115.422 75.5353 114.691C76.5415 113.959 77.7216 113.513 78.8438 112.975C79.966 112.437 81.0783 111.766 81.7712 110.733C82.1897 110.057 82.4396 109.291 82.4997 108.498C82.5598 107.706 82.4285 106.911 82.1167 106.179C81.472 104.717 80.3649 103.506 78.9652 102.732C76.8858 101.516 74.4244 101.128 72.071 101.643C69.7176 102.159 67.6451 103.541 66.2663 105.514L64.8453 109.378C63.3974 111.116 63.1677 113.698 64.0578 115.778C64.9478 117.857 66.843 119.421 68.9814 120.165C71.1511 120.862 73.4737 120.931 75.6812 120.366" fill="#2F2E41"/>
<path d="M66.8259 107.912C66.2577 107.037 65.4827 106.316 64.5693 105.81C63.6558 105.305 62.6319 105.032 61.5878 105.015C60.5438 104.999 59.5116 105.239 58.5824 105.714C57.6532 106.19 56.8554 106.887 56.2594 107.743C55.2617 109.176 54.8994 110.943 54.2134 112.548C52.9709 115.424 50.7113 117.741 47.8662 119.058C50.3573 119.495 52.8391 118.229 54.8307 116.672C56.8223 115.115 58.5738 113.215 60.8043 112.024C62.559 111.09 64.5302 110.638 66.517 110.713" fill="#2F2E41"/>
<path d="M136.634 232H7.98025C7.89069 232 7.80481 231.965 7.74148 231.901C7.67815 231.838 7.64258 231.752 7.64258 231.663C7.64258 231.573 7.67815 231.488 7.74148 231.424C7.80481 231.361 7.89069 231.326 7.98025 231.326H136.634C136.723 231.326 136.809 231.361 136.872 231.424C136.936 231.488 136.971 231.573 136.971 231.663C136.971 231.752 136.936 231.838 136.872 231.901C136.809 231.965 136.723 232 136.634 232Z" fill="#3F3D56"/>
<path d="M298.077 123.419C309.08 123.419 318 114.511 318 103.523C318 92.5354 309.08 83.6279 298.077 83.6279C287.074 83.6279 278.154 92.5354 278.154 103.523C278.154 114.511 287.074 123.419 298.077 123.419Z" fill="#E6E6E6"/>
<path d="M299.977 117.704C299.166 117.681 298.156 117.653 297.378 117.086C297.147 116.91 296.956 116.685 296.821 116.428C296.685 116.171 296.607 115.888 296.593 115.597C296.579 115.391 296.613 115.184 296.692 114.993C296.771 114.802 296.894 114.632 297.049 114.496C297.281 114.324 297.553 114.211 297.839 114.17C298.125 114.129 298.417 114.16 298.688 114.261L298.026 109.426L298.512 109.36L299.291 115.043L298.885 114.857C298.414 114.641 297.768 114.532 297.366 114.871C297.268 114.959 297.191 115.069 297.142 115.192C297.093 115.315 297.073 115.448 297.083 115.58C297.095 115.796 297.154 116.007 297.254 116.198C297.355 116.39 297.496 116.557 297.668 116.69C298.273 117.131 299.078 117.188 299.991 117.214L299.977 117.704Z" fill="#3F3D56"/>
<path d="M295.621 109.843H292.978V110.333H295.621V109.843Z" fill="#3F3D56"/>
<path d="M303.966 109.843H301.322V110.333H303.966V109.843Z" fill="#3F3D56"/>
<path d="M288.386 103.075C286.257 102.833 284.608 100.796 284.427 98.7293C284.212 96.2707 285.645 93.9357 287.612 92.556C289.67 91.1132 292.232 90.5107 294.712 90.3781C299.549 90.1377 304.303 91.7025 308.05 94.7682C309.908 96.3093 311.643 98.2724 312.301 100.644C312.872 102.703 312.407 105.036 310.749 106.478C310.338 106.831 309.859 107.096 309.341 107.255C308.823 107.415 308.278 107.465 307.74 107.403C306.453 107.27 305.266 106.594 304.238 105.848C302.239 104.396 300.597 102.374 298.161 101.615C296.375 101.059 294.058 101.549 292.966 103.161C292.719 103.531 292.558 103.951 292.497 104.391C292.474 104.485 292.488 104.584 292.536 104.668C292.584 104.752 292.662 104.815 292.754 104.844C292.848 104.869 292.948 104.856 293.033 104.808C293.118 104.76 293.18 104.68 293.207 104.587C293.493 102.555 295.995 101.797 297.75 102.261C300.309 102.938 302.027 105.218 304.127 106.667C305.214 107.477 306.494 107.987 307.841 108.147C309.008 108.239 310.166 107.884 311.081 107.153C312.875 105.739 313.561 103.306 313.164 101.116C312.705 98.5789 310.995 96.4049 309.119 94.7218C305.316 91.3457 300.379 89.5244 295.292 89.6208C292.697 89.6804 289.99 90.2153 287.754 91.5849C285.586 92.9134 283.91 95.1359 283.691 97.7195C283.498 99.9935 284.72 102.372 286.817 103.368C287.311 103.602 287.842 103.752 288.386 103.81C288.856 103.864 288.852 103.128 288.386 103.075Z" fill="#3F3D56"/>
<circle cx="43.5" cy="20.5" r="9.5" fill="#1E611A"/>
</g>
<defs>
<clipPath id="clip0_2741_5">
<rect width="318" height="232" fill="white"/>
</clipPath>
</defs>
</svg>
